<svg width="256" height="256" viewBox="0 0 256 256" xmlns="http://www.w3.org/2000/svg" preserveAspectRatio="xMidYMid">
  <path fill="url(#a)" d="M0 0h256v256H0z"/>
  <defs>
    <linearGradient id="a" x1="0" x2="0" y1="0" y2="1">
      <stop offset="0%" stop-color="#42d392"/>
      <stop offset="100%" stop-color="#647eff"/>
    </linearGradient>
  </defs>
  <path fill="#fff" d="M128.001 201.333c-20.267 0-36.8-16.053-36.8-35.733s16.533-35.734 36.8-35.734c10.667 0 20.267 4.8 26.667 12.8l1.066 1.067 22.4-22.4c-10.666-10.667-25.6-17.067-41.066-17.067-34.134 0-61.867 27.733-61.867 61.334s27.733 61.333 61.867 61.333c15.466 0 30.4-6.4 41.066-17.066l-22.4-22.4-1.067 1.066c-6.4 8-16 12.8-26.667 12.8Zm-27.734-35.2c0 8.533 7.467 15.466 16.534 15.466s16.533-6.933 16.533-15.466c0-8.534-7.467-15.467-16.533-15.467s-16.534 6.933-16.534 15.467Z"/>
  <path fill="#fff" d="m188.801 76.267-34.134 61.866-34.133-61.866h-26.667l47.467 85.333v42.133h26.667V161.6l47.467-85.333h-26.667Z"/>
</svg>
