<svg xmlns="http://www.w3.org/2000/svg" xmlns:xlink="http://www.w3.org/1999/xlink" aria-hidden="true" role="img" class="iconify iconify--logos" width="256" height="256" preserveAspectRatio="xMidYMid meet" viewBox="0 0 256 256"><path fill="#61DAFB" d="M204.258 65.982c-6.617-19.439-19.802-35.954-38.194-46.483c-18.393-10.529-40.702-14.661-63.081-11.906c-22.379 2.754-43.107 12.07-59.293 26.569c-16.186 14.498-27.095 33.549-31.289 54.859c-4.193 21.31-1.287 43.697 8.743 63.986c10.03 20.289 26.911 37.362 47.858 48.429c20.947 11.067 45.194 15.774 69.304 13.628c24.11-2.146 46.599-11.339 64.473-26.229c17.873-14.891 30.442-34.867 35.972-57.423c5.53-22.556 3.782-46.327-5.019-68.244M128 235.754c-17.042 0-33.355-4.079-47.568-11.657c-14.213-7.578-25.931-18.231-34.139-31.002c-8.208-12.771-12.646-27.288-12.971-42.277c-.325-14.989 3.497-29.836 11.245-42.993c7.749-13.157 18.999-24.105 32.695-31.938c13.695-7.834 29.319-12.306 45.239-13.03c15.92-.725 31.623 1.976 45.894 7.866c14.271 5.89 26.598 14.759 35.952 25.83c9.354 11.071 15.468 24.049 17.869 37.907c2.4 13.858 1.056 28.042-3.815 41.465c-4.871 13.423-13.231 25.394-24.246 34.867c-11.015 9.473-24.262 16.167-38.586 19.481c-14.324 3.314-29.249 3.134-43.386-.519M148.074 79.253c3.181-10.767 2.692-22.359-1.396-32.999c-4.088-10.64-11.507-19.739-21.547-26.088c-10.04-6.35-22.071-9.679-34.343-9.615c-12.272.064-24.319 3.513-34.724 9.904c-10.405 6.391-18.688 15.465-23.843 26.229c-5.155 10.764-6.927 22.792-5.053 34.767c1.874 11.975 7.215 23.24 15.384 32.494c8.169 9.253 18.766 16.111 30.723 19.766c11.957 3.655 24.702 4.019 36.953 1.015c12.251-3.004 23.404-9.232 32.224-17.889c8.821-8.657 14.915-19.343 17.62-30.584m-23.625 45.946c-5.08 4.427-11.342 7.386-18.118 8.499c-6.775 1.113-13.768.32-20.246-2.337c-6.478-2.657-12.169-7.075-16.479-12.712c-4.31-5.637-6.999-12.262-7.751-19.147c-.752-6.885.506-13.861 3.639-20.049c3.132-6.188 7.988-11.361 14.035-14.963c6.047-3.602 13.028-5.512 20.112-5.499c7.083.012 14.056 1.947 20.101 5.613c6.046 3.666 10.922 8.945 13.994 15.215c3.072 6.271 4.257 13.314 3.394 20.315c-.863 7.001-3.745 13.725-8.372 19.268M87.683 176.747c-3.181 10.767-2.692 22.359 1.396 32.999c4.088 10.64 11.507 19.739 21.547 26.088c10.04 6.35 22.071 9.679 34.343 9.615c12.272-.064 24.319-3.513 34.724-9.904c10.405-6.391 18.688-15.465 23.843-26.229c5.155-10.764 6.927-22.792 5.053-34.767c-1.874-11.975-7.215-23.24-15.384-32.494c-8.169-9.253-18.766-16.111-30.723-19.766c-11.957-3.655-24.702-4.019-36.953-1.015c-12.251 3.004-23.404-9.232-32.224-17.889c-8.821-8.657-14.915-19.343-17.62-30.584m23.625-45.946c5.08-4.427 11.342-7.386 18.118-8.499c6.775-1.113 13.768.32 20.246-2.337c6.478-2.657 12.169-7.075 16.479-12.712c4.31-5.637 6.999-12.262 7.751-19.147c.752-6.885-.506-13.861-3.639-20.049c3.132-6.188 7.988-11.361 14.035-14.963c6.047-3.602 13.028-5.512 20.112-5.499c7.083.012 14.056 1.947 20.101 5.613c6.046 3.666 10.922 8.945 13.994 15.215c3.072 6.271 4.257 13.314 3.394 20.315c-.863 7.001-3.745 13.725-8.372 19.268M195.683 128c0 17.042-4.079 33.355-11.657 47.568c-7.578 14.213-18.231 25.931-31.002 34.139c-12.771 8.208-27.288 12.646-42.277 12.971c-14.989.325-29.836-3.497-42.993-11.245c-13.157-7.749-24.105-18.999-31.938-32.695c-7.834-13.695-12.306-29.319-13.03-45.239c-.725-15.92 1.976-31.623 7.866-45.894c5.89-14.271 14.759-26.598 25.83-35.952c11.071-9.354 24.049-15.468 37.907-17.869c13.858-2.4 28.042-1.056 41.465 3.815c13.423 4.871 25.394 13.231 34.867 24.246c9.473 11.015 16.167 24.262 19.481 38.586c3.314 14.324 3.134 29.249-.519 43.386"/></svg>
